<?xml version="1.0" encoding="utf-8" standalone="no"?>
<!DOCTYPE svg PUBLIC "-//W3C//DTD SVG 1.1//EN"
  "http://www.w3.org/Graphics/SVG/1.1/DTD/svg11.dtd">
<svg xmlns:xlink="http://www.w3.org/1999/xlink" width="495.892718pt" height="242.278125pt" viewBox="0 0 495.892718 242.278125" xmlns="http://www.w3.org/2000/svg" version="1.1">
 <metadata>
  <rdf:RDF xmlns:dc="http://purl.org/dc/elements/1.1/" xmlns:cc="http://creativecommons.org/ns#" xmlns:rdf="http://www.w3.org/1999/02/22-rdf-syntax-ns#">
   <cc:Work>
    <dc:type rdf:resource="http://purl.org/dc/dcmitype/StillImage"/>
    <dc:date>2025-07-01T15:13:18.645916</dc:date>
    <dc:format>image/svg+xml</dc:format>
    <dc:creator>
     <cc:Agent>
      <dc:title>Matplotlib v3.10.3, https://matplotlib.org/</dc:title>
     </cc:Agent>
    </dc:creator>
   </cc:Work>
  </rdf:RDF>
 </metadata>
 <defs>
  <style type="text/css">*{stroke-linejoin: round; stroke-linecap: butt}</style>
 </defs>
 <g id="figure_1">
  <g id="patch_1">
   <path d="M 0 242.278125 
L 495.892718 242.278125 
L 495.892718 0 
L 0 0 
z
" style="fill: #ffffff"/>
  </g>
  <g id="axes_1">
   <g id="patch_2">
    <path d="M 51.378125 170.44 
L 240.702753 170.44 
L 240.702753 7.2 
L 51.378125 7.2 
z
" style="fill: #ffffff"/>
   </g>
   <g id="FillBetweenPolyCollection_1"/>
   <g id="matplotlib.axis_1">
    <g id="xtick_1">
     <g id="line2d_1">
      <defs>
       <path id="m90f38bc858" d="M 0 0 
L 0 3.5 
" style="stroke: #000000; stroke-width: 0.8"/>
      </defs>
      <g>
       <use xlink:href="#m90f38bc858" x="59.98379" y="170.44" style="stroke: #000000; stroke-width: 0.8"/>
      </g>
     </g>
     <g id="text_1">
      <!-- 0 -->
      <g transform="translate(56.80254 185.038438) scale(0.1 -0.1)">
       <defs>
        <path id="DejaVuSans-30" d="M 2034 4250 
Q 1547 4250 1301 3770 
Q 1056 3291 1056 2328 
Q 1056 1369 1301 889 
Q 1547 409 2034 409 
Q 2525 409 2770 889 
Q 3016 1369 3016 2328 
Q 3016 3291 2770 3770 
Q 2525 4250 2034 4250 
z
M 2034 4750 
Q 2819 4750 3233 4129 
Q 3647 3509 3647 2328 
Q 3647 1150 3233 529 
Q 2819 -91 2034 -91 
Q 1250 -91 836 529 
Q 422 1150 422 2328 
Q 422 3509 836 4129 
Q 1250 4750 2034 4750 
z
" transform="scale(0.015625)"/>
       </defs>
       <use xlink:href="#DejaVuSans-30"/>
      </g>
     </g>
    </g>
    <g id="xtick_2">
     <g id="line2d_2">
      <g>
       <use xlink:href="#m90f38bc858" x="117.546766" y="170.44" style="stroke: #000000; stroke-width: 0.8"/>
      </g>
     </g>
     <g id="text_2">
      <!-- 100 -->
      <g transform="translate(108.003016 185.038438) scale(0.1 -0.1)">
       <defs>
        <path id="DejaVuSans-31" d="M 794 531 
L 1825 531 
L 1825 4091 
L 703 3866 
L 703 4441 
L 1819 4666 
L 2450 4666 
L 2450 531 
L 3481 531 
L 3481 0 
L 794 0 
L 794 531 
z
" transform="scale(0.015625)"/>
       </defs>
       <use xlink:href="#DejaVuSans-31"/>
       <use xlink:href="#DejaVuSans-30" transform="translate(63.623047 0)"/>
       <use xlink:href="#DejaVuSans-30" transform="translate(127.246094 0)"/>
      </g>
     </g>
    </g>
    <g id="xtick_3">
     <g id="line2d_3">
      <g>
       <use xlink:href="#m90f38bc858" x="175.109742" y="170.44" style="stroke: #000000; stroke-width: 0.8"/>
      </g>
     </g>
     <g id="text_3">
      <!-- 200 -->
      <g transform="translate(165.565992 185.038438) scale(0.1 -0.1)">
       <defs>
        <path id="DejaVuSans-32" d="M 1228 531 
L 3431 531 
L 3431 0 
L 469 0 
L 469 531 
Q 828 903 1448 1529 
Q 2069 2156 2228 2338 
Q 2531 2678 2651 2914 
Q 2772 3150 2772 3378 
Q 2772 3750 2511 3984 
Q 2250 4219 1831 4219 
Q 1534 4219 1204 4116 
Q 875 4013 500 3803 
L 500 4441 
Q 881 4594 1212 4672 
Q 1544 4750 1819 4750 
Q 2544 4750 2975 4387 
Q 3406 4025 3406 3419 
Q 3406 3131 3298 2873 
Q 3191 2616 2906 2266 
Q 2828 2175 2409 1742 
Q 1991 1309 1228 531 
z
" transform="scale(0.015625)"/>
       </defs>
       <use xlink:href="#DejaVuSans-32"/>
       <use xlink:href="#DejaVuSans-30" transform="translate(63.623047 0)"/>
       <use xlink:href="#DejaVuSans-30" transform="translate(127.246094 0)"/>
      </g>
     </g>
    </g>
    <g id="xtick_4">
     <g id="line2d_4">
      <g>
       <use xlink:href="#m90f38bc858" x="232.672718" y="170.44" style="stroke: #000000; stroke-width: 0.8"/>
      </g>
     </g>
     <g id="text_4">
      <!-- 300 -->
      <g transform="translate(223.128968 185.038438) scale(0.1 -0.1)">
       <defs>
        <path id="DejaVuSans-33" d="M 2597 2516 
Q 3050 2419 3304 2112 
Q 3559 1806 3559 1356 
Q 3559 666 3084 287 
Q 2609 -91 1734 -91 
Q 1441 -91 1130 -33 
Q 819 25 488 141 
L 488 750 
Q 750 597 1062 519 
Q 1375 441 1716 441 
Q 2309 441 2620 675 
Q 2931 909 2931 1356 
Q 2931 1769 2642 2001 
Q 2353 2234 1838 2234 
L 1294 2234 
L 1294 2753 
L 1863 2753 
Q 2328 2753 2575 2939 
Q 2822 3125 2822 3475 
Q 2822 3834 2567 4026 
Q 2313 4219 1838 4219 
Q 1578 4219 1281 4162 
Q 984 4106 628 3988 
L 628 4550 
Q 988 4650 1302 4700 
Q 1616 4750 1894 4750 
Q 2613 4750 3031 4423 
Q 3450 4097 3450 3541 
Q 3450 3153 3228 2886 
Q 3006 2619 2597 2516 
z
" transform="scale(0.015625)"/>
       </defs>
       <use xlink:href="#DejaVuSans-33"/>
       <use xlink:href="#DejaVuSans-30" transform="translate(63.623047 0)"/>
       <use xlink:href="#DejaVuSans-30" transform="translate(127.246094 0)"/>
      </g>
     </g>
    </g>
    <g id="text_5">
     <!-- Epoch -->
     <g transform="translate(130.729502 198.716563) scale(0.1 -0.1)">
      <defs>
       <path id="DejaVuSans-45" d="M 628 4666 
L 3578 4666 
L 3578 4134 
L 1259 4134 
L 1259 2753 
L 3481 2753 
L 3481 2222 
L 1259 2222 
L 1259 531 
L 3634 531 
L 3634 0 
L 628 0 
L 628 4666 
z
" transform="scale(0.015625)"/>
       <path id="DejaVuSans-70" d="M 1159 525 
L 1159 -1331 
L 581 -1331 
L 581 3500 
L 1159 3500 
L 1159 2969 
Q 1341 3281 1617 3432 
Q 1894 3584 2278 3584 
Q 2916 3584 3314 3078 
Q 3713 2572 3713 1747 
Q 3713 922 3314 415 
Q 2916 -91 2278 -91 
Q 1894 -91 1617 61 
Q 1341 213 1159 525 
z
M 3116 1747 
Q 3116 2381 2855 2742 
Q 2594 3103 2138 3103 
Q 1681 3103 1420 2742 
Q 1159 2381 1159 1747 
Q 1159 1113 1420 752 
Q 1681 391 2138 391 
Q 2594 391 2855 752 
Q 3116 1113 3116 1747 
z
" transform="scale(0.015625)"/>
       <path id="DejaVuSans-6f" d="M 1959 3097 
Q 1497 3097 1228 2736 
Q 959 2375 959 1747 
Q 959 1119 1226 758 
Q 1494 397 1959 397 
Q 2419 397 2687 759 
Q 2956 1122 2956 1747 
Q 2956 2369 2687 2733 
Q 2419 3097 1959 3097 
z
M 1959 3584 
Q 2709 3584 3137 3096 
Q 3566 2609 3566 1747 
Q 3566 888 3137 398 
Q 2709 -91 1959 -91 
Q 1206 -91 779 398 
Q 353 888 353 1747 
Q 353 2609 779 3096 
Q 1206 3584 1959 3584 
z
" transform="scale(0.015625)"/>
       <path id="DejaVuSans-63" d="M 3122 3366 
L 3122 2828 
Q 2878 2963 2633 3030 
Q 2388 3097 2138 3097 
Q 1578 3097 1268 2742 
Q 959 2388 959 1747 
Q 959 1106 1268 751 
Q 1578 397 2138 397 
Q 2388 397 2633 464 
Q 2878 531 3122 666 
L 3122 134 
Q 2881 22 2623 -34 
Q 2366 -91 2075 -91 
Q 1284 -91 818 406 
Q 353 903 353 1747 
Q 353 2603 823 3093 
Q 1294 3584 2113 3584 
Q 2378 3584 2631 3529 
Q 2884 3475 3122 3366 
z
" transform="scale(0.015625)"/>
       <path id="DejaVuSans-68" d="M 3513 2113 
L 3513 0 
L 2938 0 
L 2938 2094 
Q 2938 2591 2744 2837 
Q 2550 3084 2163 3084 
Q 1697 3084 1428 2787 
Q 1159 2491 1159 1978 
L 1159 0 
L 581 0 
L 581 4863 
L 1159 4863 
L 1159 2956 
Q 1366 3272 1645 3428 
Q 1925 3584 2291 3584 
Q 2894 3584 3203 3211 
Q 3513 2838 3513 2113 
z
" transform="scale(0.015625)"/>
      </defs>
      <use xlink:href="#DejaVuSans-45"/>
      <use xlink:href="#DejaVuSans-70" transform="translate(63.183594 0)"/>
      <use xlink:href="#DejaVuSans-6f" transform="translate(126.660156 0)"/>
      <use xlink:href="#DejaVuSans-63" transform="translate(187.841797 0)"/>
      <use xlink:href="#DejaVuSans-68" transform="translate(242.822266 0)"/>
     </g>
    </g>
   </g>
   <g id="matplotlib.axis_2">
    <g id="ytick_1">
     <g id="line2d_5">
      <defs>
       <path id="mb25f191682" d="M 0 0 
L -3.5 0 
" style="stroke: #000000; stroke-width: 0.8"/>
      </defs>
      <g>
       <use xlink:href="#mb25f191682" x="51.378125" y="163.353468" style="stroke: #000000; stroke-width: 0.8"/>
      </g>
     </g>
     <g id="text_6">
      <!-- $\mathdefault{10^{-5}}$ -->
      <g transform="translate(20.878125 167.152687) scale(0.1 -0.1)">
       <defs>
        <path id="DejaVuSans-2212" d="M 678 2272 
L 4684 2272 
L 4684 1741 
L 678 1741 
L 678 2272 
z
" transform="scale(0.015625)"/>
        <path id="DejaVuSans-35" d="M 691 4666 
L 3169 4666 
L 3169 4134 
L 1269 4134 
L 1269 2991 
Q 1406 3038 1543 3061 
Q 1681 3084 1819 3084 
Q 2600 3084 3056 2656 
Q 3513 2228 3513 1497 
Q 3513 744 3044 326 
Q 2575 -91 1722 -91 
Q 1428 -91 1123 -41 
Q 819 9 494 109 
L 494 744 
Q 775 591 1075 516 
Q 1375 441 1709 441 
Q 2250 441 2565 725 
Q 2881 1009 2881 1497 
Q 2881 1984 2565 2268 
Q 2250 2553 1709 2553 
Q 1456 2553 1204 2497 
Q 953 2441 691 2322 
L 691 4666 
z
" transform="scale(0.015625)"/>
       </defs>
       <use xlink:href="#DejaVuSans-31" transform="translate(0 0.684375)"/>
       <use xlink:href="#DejaVuSans-30" transform="translate(63.623047 0.684375)"/>
       <use xlink:href="#DejaVuSans-2212" transform="translate(128.203125 38.965625) scale(0.7)"/>
       <use xlink:href="#DejaVuSans-35" transform="translate(186.855469 38.965625) scale(0.7)"/>
      </g>
     </g>
    </g>
    <g id="ytick_2">
     <g id="line2d_6">
      <g>
       <use xlink:href="#mb25f191682" x="51.378125" y="135.086964" style="stroke: #000000; stroke-width: 0.8"/>
      </g>
     </g>
     <g id="text_7">
      <!-- $\mathdefault{10^{-4}}$ -->
      <g transform="translate(20.878125 138.886183) scale(0.1 -0.1)">
       <defs>
        <path id="DejaVuSans-34" d="M 2419 4116 
L 825 1625 
L 2419 1625 
L 2419 4116 
z
M 2253 4666 
L 3047 4666 
L 3047 1625 
L 3713 1625 
L 3713 1100 
L 3047 1100 
L 3047 0 
L 2419 0 
L 2419 1100 
L 313 1100 
L 313 1709 
L 2253 4666 
z
" transform="scale(0.015625)"/>
       </defs>
       <use xlink:href="#DejaVuSans-31" transform="translate(0 0.684375)"/>
       <use xlink:href="#DejaVuSans-30" transform="translate(63.623047 0.684375)"/>
       <use xlink:href="#DejaVuSans-2212" transform="translate(128.203125 38.965625) scale(0.7)"/>
       <use xlink:href="#DejaVuSans-34" transform="translate(186.855469 38.965625) scale(0.7)"/>
      </g>
     </g>
    </g>
    <g id="ytick_3">
     <g id="line2d_7">
      <g>
       <use xlink:href="#mb25f191682" x="51.378125" y="106.820461" style="stroke: #000000; stroke-width: 0.8"/>
      </g>
     </g>
     <g id="text_8">
      <!-- $\mathdefault{10^{-3}}$ -->
      <g transform="translate(20.878125 110.619679) scale(0.1 -0.1)">
       <use xlink:href="#DejaVuSans-31" transform="translate(0 0.765625)"/>
       <use xlink:href="#DejaVuSans-30" transform="translate(63.623047 0.765625)"/>
       <use xlink:href="#DejaVuSans-2212" transform="translate(128.203125 39.046875) scale(0.7)"/>
       <use xlink:href="#DejaVuSans-33" transform="translate(186.855469 39.046875) scale(0.7)"/>
      </g>
     </g>
    </g>
    <g id="ytick_4">
     <g id="line2d_8">
      <g>
       <use xlink:href="#mb25f191682" x="51.378125" y="78.553957" style="stroke: #000000; stroke-width: 0.8"/>
      </g>
     </g>
     <g id="text_9">
      <!-- $\mathdefault{10^{-2}}$ -->
      <g transform="translate(20.878125 82.353176) scale(0.1 -0.1)">
       <use xlink:href="#DejaVuSans-31" transform="translate(0 0.765625)"/>
       <use xlink:href="#DejaVuSans-30" transform="translate(63.623047 0.765625)"/>
       <use xlink:href="#DejaVuSans-2212" transform="translate(128.203125 39.046875) scale(0.7)"/>
       <use xlink:href="#DejaVuSans-32" transform="translate(186.855469 39.046875) scale(0.7)"/>
      </g>
     </g>
    </g>
    <g id="ytick_5">
     <g id="line2d_9">
      <g>
       <use xlink:href="#mb25f191682" x="51.378125" y="50.287453" style="stroke: #000000; stroke-width: 0.8"/>
      </g>
     </g>
     <g id="text_10">
      <!-- $\mathdefault{10^{-1}}$ -->
      <g transform="translate(20.878125 54.086672) scale(0.1 -0.1)">
       <use xlink:href="#DejaVuSans-31" transform="translate(0 0.684375)"/>
       <use xlink:href="#DejaVuSans-30" transform="translate(63.623047 0.684375)"/>
       <use xlink:href="#DejaVuSans-2212" transform="translate(128.203125 38.965625) scale(0.7)"/>
       <use xlink:href="#DejaVuSans-31" transform="translate(186.855469 38.965625) scale(0.7)"/>
      </g>
     </g>
    </g>
    <g id="ytick_6">
     <g id="line2d_10">
      <g>
       <use xlink:href="#mb25f191682" x="51.378125" y="22.020949" style="stroke: #000000; stroke-width: 0.8"/>
      </g>
     </g>
     <g id="text_11">
      <!-- $\mathdefault{10^{0}}$ -->
      <g transform="translate(26.778125 25.820168) scale(0.1 -0.1)">
       <use xlink:href="#DejaVuSans-31" transform="translate(0 0.765625)"/>
       <use xlink:href="#DejaVuSans-30" transform="translate(63.623047 0.765625)"/>
       <use xlink:href="#DejaVuSans-30" transform="translate(128.203125 39.046875) scale(0.7)"/>
      </g>
     </g>
    </g>
    <g id="ytick_7">
     <g id="line2d_11">
      <defs>
       <path id="ma406cfb5d4" d="M 0 0 
L -2 0 
" style="stroke: #000000; stroke-width: 0.6"/>
      </defs>
      <g>
       <use xlink:href="#ma406cfb5d4" x="51.378125" y="169.624356" style="stroke: #000000; stroke-width: 0.6"/>
      </g>
     </g>
    </g>
    <g id="ytick_8">
     <g id="line2d_12">
      <g>
       <use xlink:href="#ma406cfb5d4" x="51.378125" y="167.732005" style="stroke: #000000; stroke-width: 0.6"/>
      </g>
     </g>
    </g>
    <g id="ytick_9">
     <g id="line2d_13">
      <g>
       <use xlink:href="#ma406cfb5d4" x="51.378125" y="166.092775" style="stroke: #000000; stroke-width: 0.6"/>
      </g>
     </g>
    </g>
    <g id="ytick_10">
     <g id="line2d_14">
      <g>
       <use xlink:href="#ma406cfb5d4" x="51.378125" y="164.646872" style="stroke: #000000; stroke-width: 0.6"/>
      </g>
     </g>
    </g>
    <g id="ytick_11">
     <g id="line2d_15">
      <g>
       <use xlink:href="#ma406cfb5d4" x="51.378125" y="154.844403" style="stroke: #000000; stroke-width: 0.6"/>
      </g>
     </g>
    </g>
    <g id="ytick_12">
     <g id="line2d_16">
      <g>
       <use xlink:href="#ma406cfb5d4" x="51.378125" y="149.866918" style="stroke: #000000; stroke-width: 0.6"/>
      </g>
     </g>
    </g>
    <g id="ytick_13">
     <g id="line2d_17">
      <g>
       <use xlink:href="#ma406cfb5d4" x="51.378125" y="146.335337" style="stroke: #000000; stroke-width: 0.6"/>
      </g>
     </g>
    </g>
    <g id="ytick_14">
     <g id="line2d_18">
      <g>
       <use xlink:href="#ma406cfb5d4" x="51.378125" y="143.59603" style="stroke: #000000; stroke-width: 0.6"/>
      </g>
     </g>
    </g>
    <g id="ytick_15">
     <g id="line2d_19">
      <g>
       <use xlink:href="#ma406cfb5d4" x="51.378125" y="141.357853" style="stroke: #000000; stroke-width: 0.6"/>
      </g>
     </g>
    </g>
    <g id="ytick_16">
     <g id="line2d_20">
      <g>
       <use xlink:href="#ma406cfb5d4" x="51.378125" y="139.465501" style="stroke: #000000; stroke-width: 0.6"/>
      </g>
     </g>
    </g>
    <g id="ytick_17">
     <g id="line2d_21">
      <g>
       <use xlink:href="#ma406cfb5d4" x="51.378125" y="137.826272" style="stroke: #000000; stroke-width: 0.6"/>
      </g>
     </g>
    </g>
    <g id="ytick_18">
     <g id="line2d_22">
      <g>
       <use xlink:href="#ma406cfb5d4" x="51.378125" y="136.380369" style="stroke: #000000; stroke-width: 0.6"/>
      </g>
     </g>
    </g>
    <g id="ytick_19">
     <g id="line2d_23">
      <g>
       <use xlink:href="#ma406cfb5d4" x="51.378125" y="126.577899" style="stroke: #000000; stroke-width: 0.6"/>
      </g>
     </g>
    </g>
    <g id="ytick_20">
     <g id="line2d_24">
      <g>
       <use xlink:href="#ma406cfb5d4" x="51.378125" y="121.600415" style="stroke: #000000; stroke-width: 0.6"/>
      </g>
     </g>
    </g>
    <g id="ytick_21">
     <g id="line2d_25">
      <g>
       <use xlink:href="#ma406cfb5d4" x="51.378125" y="118.068833" style="stroke: #000000; stroke-width: 0.6"/>
      </g>
     </g>
    </g>
    <g id="ytick_22">
     <g id="line2d_26">
      <g>
       <use xlink:href="#ma406cfb5d4" x="51.378125" y="115.329526" style="stroke: #000000; stroke-width: 0.6"/>
      </g>
     </g>
    </g>
    <g id="ytick_23">
     <g id="line2d_27">
      <g>
       <use xlink:href="#ma406cfb5d4" x="51.378125" y="113.091349" style="stroke: #000000; stroke-width: 0.6"/>
      </g>
     </g>
    </g>
    <g id="ytick_24">
     <g id="line2d_28">
      <g>
       <use xlink:href="#ma406cfb5d4" x="51.378125" y="111.198997" style="stroke: #000000; stroke-width: 0.6"/>
      </g>
     </g>
    </g>
    <g id="ytick_25">
     <g id="line2d_29">
      <g>
       <use xlink:href="#ma406cfb5d4" x="51.378125" y="109.559768" style="stroke: #000000; stroke-width: 0.6"/>
      </g>
     </g>
    </g>
    <g id="ytick_26">
     <g id="line2d_30">
      <g>
       <use xlink:href="#ma406cfb5d4" x="51.378125" y="108.113865" style="stroke: #000000; stroke-width: 0.6"/>
      </g>
     </g>
    </g>
    <g id="ytick_27">
     <g id="line2d_31">
      <g>
       <use xlink:href="#ma406cfb5d4" x="51.378125" y="98.311395" style="stroke: #000000; stroke-width: 0.6"/>
      </g>
     </g>
    </g>
    <g id="ytick_28">
     <g id="line2d_32">
      <g>
       <use xlink:href="#ma406cfb5d4" x="51.378125" y="93.333911" style="stroke: #000000; stroke-width: 0.6"/>
      </g>
     </g>
    </g>
    <g id="ytick_29">
     <g id="line2d_33">
      <g>
       <use xlink:href="#ma406cfb5d4" x="51.378125" y="89.80233" style="stroke: #000000; stroke-width: 0.6"/>
      </g>
     </g>
    </g>
    <g id="ytick_30">
     <g id="line2d_34">
      <g>
       <use xlink:href="#ma406cfb5d4" x="51.378125" y="87.063022" style="stroke: #000000; stroke-width: 0.6"/>
      </g>
     </g>
    </g>
    <g id="ytick_31">
     <g id="line2d_35">
      <g>
       <use xlink:href="#ma406cfb5d4" x="51.378125" y="84.824845" style="stroke: #000000; stroke-width: 0.6"/>
      </g>
     </g>
    </g>
    <g id="ytick_32">
     <g id="line2d_36">
      <g>
       <use xlink:href="#ma406cfb5d4" x="51.378125" y="82.932494" style="stroke: #000000; stroke-width: 0.6"/>
      </g>
     </g>
    </g>
    <g id="ytick_33">
     <g id="line2d_37">
      <g>
       <use xlink:href="#ma406cfb5d4" x="51.378125" y="81.293264" style="stroke: #000000; stroke-width: 0.6"/>
      </g>
     </g>
    </g>
    <g id="ytick_34">
     <g id="line2d_38">
      <g>
       <use xlink:href="#ma406cfb5d4" x="51.378125" y="79.847361" style="stroke: #000000; stroke-width: 0.6"/>
      </g>
     </g>
    </g>
    <g id="ytick_35">
     <g id="line2d_39">
      <g>
       <use xlink:href="#ma406cfb5d4" x="51.378125" y="70.044891" style="stroke: #000000; stroke-width: 0.6"/>
      </g>
     </g>
    </g>
    <g id="ytick_36">
     <g id="line2d_40">
      <g>
       <use xlink:href="#ma406cfb5d4" x="51.378125" y="65.067407" style="stroke: #000000; stroke-width: 0.6"/>
      </g>
     </g>
    </g>
    <g id="ytick_37">
     <g id="line2d_41">
      <g>
       <use xlink:href="#ma406cfb5d4" x="51.378125" y="61.535826" style="stroke: #000000; stroke-width: 0.6"/>
      </g>
     </g>
    </g>
    <g id="ytick_38">
     <g id="line2d_42">
      <g>
       <use xlink:href="#ma406cfb5d4" x="51.378125" y="58.796519" style="stroke: #000000; stroke-width: 0.6"/>
      </g>
     </g>
    </g>
    <g id="ytick_39">
     <g id="line2d_43">
      <g>
       <use xlink:href="#ma406cfb5d4" x="51.378125" y="56.558342" style="stroke: #000000; stroke-width: 0.6"/>
      </g>
     </g>
    </g>
    <g id="ytick_40">
     <g id="line2d_44">
      <g>
       <use xlink:href="#ma406cfb5d4" x="51.378125" y="54.66599" style="stroke: #000000; stroke-width: 0.6"/>
      </g>
     </g>
    </g>
    <g id="ytick_41">
     <g id="line2d_45">
      <g>
       <use xlink:href="#ma406cfb5d4" x="51.378125" y="53.02676" style="stroke: #000000; stroke-width: 0.6"/>
      </g>
     </g>
    </g>
    <g id="ytick_42">
     <g id="line2d_46">
      <g>
       <use xlink:href="#ma406cfb5d4" x="51.378125" y="51.580857" style="stroke: #000000; stroke-width: 0.6"/>
      </g>
     </g>
    </g>
    <g id="ytick_43">
     <g id="line2d_47">
      <g>
       <use xlink:href="#ma406cfb5d4" x="51.378125" y="41.778388" style="stroke: #000000; stroke-width: 0.6"/>
      </g>
     </g>
    </g>
    <g id="ytick_44">
     <g id="line2d_48">
      <g>
       <use xlink:href="#ma406cfb5d4" x="51.378125" y="36.800903" style="stroke: #000000; stroke-width: 0.6"/>
      </g>
     </g>
    </g>
    <g id="ytick_45">
     <g id="line2d_49">
      <g>
       <use xlink:href="#ma406cfb5d4" x="51.378125" y="33.269322" style="stroke: #000000; stroke-width: 0.6"/>
      </g>
     </g>
    </g>
    <g id="ytick_46">
     <g id="line2d_50">
      <g>
       <use xlink:href="#ma406cfb5d4" x="51.378125" y="30.530015" style="stroke: #000000; stroke-width: 0.6"/>
      </g>
     </g>
    </g>
    <g id="ytick_47">
     <g id="line2d_51">
      <g>
       <use xlink:href="#ma406cfb5d4" x="51.378125" y="28.291838" style="stroke: #000000; stroke-width: 0.6"/>
      </g>
     </g>
    </g>
    <g id="ytick_48">
     <g id="line2d_52">
      <g>
       <use xlink:href="#ma406cfb5d4" x="51.378125" y="26.399486" style="stroke: #000000; stroke-width: 0.6"/>
      </g>
     </g>
    </g>
    <g id="ytick_49">
     <g id="line2d_53">
      <g>
       <use xlink:href="#ma406cfb5d4" x="51.378125" y="24.760257" style="stroke: #000000; stroke-width: 0.6"/>
      </g>
     </g>
    </g>
    <g id="ytick_50">
     <g id="line2d_54">
      <g>
       <use xlink:href="#ma406cfb5d4" x="51.378125" y="23.314354" style="stroke: #000000; stroke-width: 0.6"/>
      </g>
     </g>
    </g>
    <g id="ytick_51">
     <g id="line2d_55">
      <g>
       <use xlink:href="#ma406cfb5d4" x="51.378125" y="13.511884" style="stroke: #000000; stroke-width: 0.6"/>
      </g>
     </g>
    </g>
    <g id="ytick_52">
     <g id="line2d_56">
      <g>
       <use xlink:href="#ma406cfb5d4" x="51.378125" y="8.5344" style="stroke: #000000; stroke-width: 0.6"/>
      </g>
     </g>
    </g>
    <g id="text_12">
     <!-- Train Loss -->
     <g transform="translate(14.798438 113.37) rotate(-90) scale(0.1 -0.1)">
      <defs>
       <path id="DejaVuSans-54" d="M -19 4666 
L 3928 4666 
L 3928 4134 
L 2272 4134 
L 2272 0 
L 1638 0 
L 1638 4134 
L -19 4134 
L -19 4666 
z
" transform="scale(0.015625)"/>
       <path id="DejaVuSans-72" d="M 2631 2963 
Q 2534 3019 2420 3045 
Q 2306 3072 2169 3072 
Q 1681 3072 1420 2755 
Q 1159 2438 1159 1844 
L 1159 0 
L 581 0 
L 581 3500 
L 1159 3500 
L 1159 2956 
Q 1341 3275 1631 3429 
Q 1922 3584 2338 3584 
Q 2397 3584 2469 3576 
Q 2541 3569 2628 3553 
L 2631 2963 
z
" transform="scale(0.015625)"/>
       <path id="DejaVuSans-61" d="M 2194 1759 
Q 1497 1759 1228 1600 
Q 959 1441 959 1056 
Q 959 750 1161 570 
Q 1363 391 1709 391 
Q 2188 391 2477 730 
Q 2766 1069 2766 1631 
L 2766 1759 
L 2194 1759 
z
M 3341 1997 
L 3341 0 
L 2766 0 
L 2766 531 
Q 2569 213 2275 61 
Q 1981 -91 1556 -91 
Q 1019 -91 701 211 
Q 384 513 384 1019 
Q 384 1609 779 1909 
Q 1175 2209 1959 2209 
L 2766 2209 
L 2766 2266 
Q 2766 2663 2505 2880 
Q 2244 3097 1772 3097 
Q 1472 3097 1187 3025 
Q 903 2953 641 2809 
L 641 3341 
Q 956 3463 1253 3523 
Q 1550 3584 1831 3584 
Q 2591 3584 2966 3190 
Q 3341 2797 3341 1997 
z
" transform="scale(0.015625)"/>
       <path id="DejaVuSans-69" d="M 603 3500 
L 1178 3500 
L 1178 0 
L 603 0 
L 603 3500 
z
M 603 4863 
L 1178 4863 
L 1178 4134 
L 603 4134 
L 603 4863 
z
" transform="scale(0.015625)"/>
       <path id="DejaVuSans-6e" d="M 3513 2113 
L 3513 0 
L 2938 0 
L 2938 2094 
Q 2938 2591 2744 2837 
Q 2550 3084 2163 3084 
Q 1697 3084 1428 2787 
Q 1159 2491 1159 1978 
L 1159 0 
L 581 0 
L 581 3500 
L 1159 3500 
L 1159 2956 
Q 1366 3272 1645 3428 
Q 1925 3584 2291 3584 
Q 2894 3584 3203 3211 
Q 3513 2838 3513 2113 
z
" transform="scale(0.015625)"/>
       <path id="DejaVuSans-20" transform="scale(0.015625)"/>
       <path id="DejaVuSans-4c" d="M 628 4666 
L 1259 4666 
L 1259 531 
L 3531 531 
L 3531 0 
L 628 0 
L 628 4666 
z
" transform="scale(0.015625)"/>
       <path id="DejaVuSans-73" d="M 2834 3397 
L 2834 2853 
Q 2591 2978 2328 3040 
Q 2066 3103 1784 3103 
Q 1356 3103 1142 2972 
Q 928 2841 928 2578 
Q 928 2378 1081 2264 
Q 1234 2150 1697 2047 
L 1894 2003 
Q 2506 1872 2764 1633 
Q 3022 1394 3022 966 
Q 3022 478 2636 193 
Q 2250 -91 1575 -91 
Q 1294 -91 989 -36 
Q 684 19 347 128 
L 347 722 
Q 666 556 975 473 
Q 1284 391 1588 391 
Q 1994 391 2212 530 
Q 2431 669 2431 922 
Q 2431 1156 2273 1281 
Q 2116 1406 1581 1522 
L 1381 1569 
Q 847 1681 609 1914 
Q 372 2147 372 2553 
Q 372 3047 722 3315 
Q 1072 3584 1716 3584 
Q 2034 3584 2315 3537 
Q 2597 3491 2834 3397 
z
" transform="scale(0.015625)"/>
      </defs>
      <use xlink:href="#DejaVuSans-54"/>
      <use xlink:href="#DejaVuSans-72" transform="translate(46.333984 0)"/>
      <use xlink:href="#DejaVuSans-61" transform="translate(87.447266 0)"/>
      <use xlink:href="#DejaVuSans-69" transform="translate(148.726562 0)"/>
      <use xlink:href="#DejaVuSans-6e" transform="translate(176.509766 0)"/>
      <use xlink:href="#DejaVuSans-20" transform="translate(239.888672 0)"/>
      <use xlink:href="#DejaVuSans-4c" transform="translate(271.675781 0)"/>
      <use xlink:href="#DejaVuSans-6f" transform="translate(325.638672 0)"/>
      <use xlink:href="#DejaVuSans-73" transform="translate(386.820312 0)"/>
      <use xlink:href="#DejaVuSans-73" transform="translate(438.919922 0)"/>
     </g>
    </g>
   </g>
   <g id="line2d_57">
    <path d="M 59.98379 28.214224 
L 60.55942 14.62 
L 61.135049 29.347125 
L 61.710679 33.03913 
L 62.286309 57.719188 
L 62.861939 26.829306 
L 63.437568 38.249376 
L 64.013198 31.792534 
L 64.588828 34.69049 
L 65.164458 61.153672 
L 65.740088 42.051731 
L 66.315717 60.27981 
L 66.891347 37.800973 
L 67.466977 52.305314 
L 68.042607 77.722238 
L 68.618236 84.307223 
L 69.193866 25.626635 
L 69.769496 55.217914 
L 70.345126 71.386581 
L 70.920755 60.369188 
L 71.496385 65.145185 
L 72.072015 44.437812 
L 72.647645 59.318763 
L 73.223274 107.384599 
L 73.798904 62.22958 
L 74.374534 72.741931 
L 74.950164 95.148535 
L 75.525793 71.076302 
L 76.101423 76.798503 
L 76.677053 95.578119 
L 77.252683 65.700227 
L 77.828312 73.583111 
L 78.403942 75.594529 
L 78.979572 69.555635 
L 79.555202 81.113405 
L 80.130832 76.949113 
L 80.706461 66.188396 
L 81.282091 115.877607 
L 81.857721 99.486823 
L 82.433351 63.858925 
L 83.58461 90.10093 
L 84.16024 74.463868 
L 84.73587 72.997412 
L 85.311499 114.967511 
L 85.887129 76.679949 
L 86.462759 101.610283 
L 87.038389 63.282914 
L 87.614018 106.997467 
L 88.189648 89.884129 
L 88.765278 105.918384 
L 89.340908 87.787189 
L 89.916537 79.163573 
L 91.067797 68.487493 
L 91.643427 83.009154 
L 92.219056 76.46718 
L 92.794686 101.085428 
L 93.370316 69.906353 
L 93.945946 100.736725 
L 94.521576 88.644038 
L 95.097205 53.257697 
L 95.672835 69.409494 
L 96.248465 123.953626 
L 96.824095 65.253867 
L 97.399724 86.408224 
L 97.975354 94.436372 
L 98.550984 85.437696 
L 99.126614 88.339362 
L 99.702243 118.151261 
L 100.277873 108.14995 
L 100.853503 74.58639 
L 101.429133 85.821229 
L 102.004762 94.318527 
L 102.580392 67.467496 
L 103.156022 82.647849 
L 104.307281 94.543419 
L 104.882911 105.614042 
L 105.458541 95.958396 
L 106.034171 111.130949 
L 106.6098 78.998179 
L 107.18543 102.511131 
L 107.76106 90.402604 
L 108.33669 92.34831 
L 108.91232 82.568201 
L 109.487949 69.327819 
L 110.063579 90.794431 
L 110.639209 143.65634 
L 111.214839 86.87035 
L 111.790468 98.690221 
L 112.366098 82.046688 
L 112.941728 70.423678 
L 114.092987 126.955962 
L 114.668617 91.113103 
L 115.244247 94.6783 
L 115.819877 102.850529 
L 116.395506 95.861384 
L 116.971136 127.193536 
L 117.546766 89.12774 
L 118.122396 95.236517 
L 118.698025 70.47649 
L 119.273655 105.703347 
L 119.849285 77.545045 
L 120.424915 89.959562 
L 121.000544 89.241747 
L 121.576174 84.889415 
L 122.151804 71.131534 
L 122.727434 109.808464 
L 123.303064 107.406715 
L 123.878693 70.032061 
L 124.454323 88.814239 
L 125.029953 101.180046 
L 125.605583 72.996244 
L 126.181212 116.589058 
L 126.756842 80.95037 
L 127.332472 94.998884 
L 127.908102 85.926372 
L 128.483731 120.180648 
L 129.059361 91.297249 
L 129.634991 94.306878 
L 130.210621 121.049812 
L 130.78625 90.725549 
L 131.36188 120.672437 
L 131.93751 96.747655 
L 132.51314 93.743835 
L 133.664399 104.573058 
L 134.240029 84.799223 
L 135.391288 120.90463 
L 135.966918 133.814578 
L 136.542548 75.981292 
L 137.118178 126.660997 
L 137.693808 77.635628 
L 138.269437 98.521634 
L 138.845067 76.737543 
L 139.420697 93.057333 
L 139.996327 88.775252 
L 140.571956 75.786343 
L 141.147586 71.291912 
L 141.723216 83.161867 
L 142.298846 99.31975 
L 142.874475 77.473532 
L 143.450105 85.492207 
L 144.025735 96.33056 
L 144.601365 90.418997 
L 145.176994 117.4975 
L 145.752624 116.712927 
L 146.328254 95.117242 
L 146.903884 125.796032 
L 147.479513 96.96353 
L 148.055143 117.251404 
L 149.206403 104.988523 
L 149.782032 103.338308 
L 150.357662 109.237319 
L 150.933292 129.21267 
L 152.084552 105.13774 
L 152.660181 117.882525 
L 153.235811 109.214372 
L 153.811441 88.902964 
L 154.387071 108.51071 
L 154.9627 100.646792 
L 155.53833 99.58662 
L 156.11396 107.491703 
L 156.68959 89.202313 
L 157.265219 105.954689 
L 157.840849 90.0482 
L 158.416479 93.376602 
L 158.992109 106.33298 
L 159.567738 106.37504 
L 160.143368 95.120954 
L 160.718998 142.289598 
L 161.294628 117.221268 
L 161.870257 104.970234 
L 162.445887 101.167467 
L 163.021517 74.917414 
L 163.597147 137.344728 
L 164.172777 84.739242 
L 164.748406 119.17986 
L 165.324036 80.012379 
L 165.899666 92.496033 
L 166.475296 120.378006 
L 167.050925 80.415563 
L 167.626555 95.838089 
L 168.202185 94.873723 
L 168.777815 113.847395 
L 170.504704 101.352512 
L 171.080334 121.461153 
L 171.655963 91.73971 
L 172.231593 82.857781 
L 172.807223 133.036638 
L 173.382853 105.688891 
L 173.958482 91.947323 
L 174.534112 162.929837 
L 175.109742 116.454427 
L 175.685372 115.741052 
L 176.261001 86.36312 
L 176.836631 103.872882 
L 177.412261 88.804242 
L 177.987891 114.787131 
L 178.563521 81.96639 
L 179.13915 86.911349 
L 179.71478 111.169752 
L 180.29041 109.272415 
L 180.86604 108.91919 
L 181.441669 78.609354 
L 182.017299 88.023983 
L 182.592929 81.593258 
L 183.168559 110.331763 
L 183.744188 115.974029 
L 184.319818 96.218149 
L 184.895448 105.050845 
L 185.471078 109.545371 
L 186.046707 75.03352 
L 186.622337 107.445284 
L 187.197967 129.100718 
L 187.773597 73.67856 
L 188.349226 77.163435 
L 188.924856 99.67177 
L 189.500486 90.09908 
L 190.076116 109.787401 
L 190.651745 98.811774 
L 191.227375 101.986895 
L 191.803005 128.430783 
L 192.378635 108.03048 
L 192.954265 98.969116 
L 193.529894 108.381667 
L 194.105524 89.299908 
L 194.681154 89.836861 
L 195.256784 116.853659 
L 195.832413 108.901372 
L 196.408043 98.420847 
L 196.983673 112.003322 
L 197.559303 104.004997 
L 198.134932 103.074215 
L 198.710562 100.105025 
L 199.286192 111.711695 
L 199.861822 103.743662 
L 200.437451 108.615487 
L 201.013081 91.072089 
L 201.588711 106.151345 
L 202.164341 110.591774 
L 202.73997 78.675659 
L 203.3156 108.182136 
L 203.89123 93.930857 
L 204.46686 163.02 
L 205.042489 111.317221 
L 205.618119 117.322996 
L 206.769379 79.443501 
L 207.345009 81.655416 
L 207.920638 100.18257 
L 208.496268 91.188289 
L 209.071898 93.280307 
L 209.647528 116.627003 
L 210.223157 109.474431 
L 210.798787 107.730597 
L 211.374417 108.407337 
L 211.950047 91.269714 
L 212.525676 109.929539 
L 213.101306 90.231967 
L 213.676936 127.725394 
L 214.252566 90.947471 
L 214.828195 87.089487 
L 215.403825 118.156396 
L 215.979455 102.487152 
L 216.555085 93.851449 
L 217.130714 136.95161 
L 217.706344 117.122774 
L 218.281974 88.773498 
L 218.857604 106.395619 
L 219.433233 99.763217 
L 220.008863 135.550221 
L 220.584493 105.864475 
L 221.160123 126.209996 
L 222.311382 104.419942 
L 222.887012 121.539312 
L 223.462642 97.406276 
L 224.038272 102.239968 
L 224.613901 115.840512 
L 225.189531 114.853875 
L 225.765161 108.780319 
L 226.340791 111.616843 
L 226.91642 131.257166 
L 227.49205 92.922092 
L 228.06768 90.411737 
L 228.64331 88.941223 
L 229.218939 86.370686 
L 229.794569 123.102446 
L 230.370199 122.662071 
L 230.945829 93.497375 
L 231.521458 88.182931 
L 232.097088 124.417484 
L 232.097088 124.417484 
" clip-path="url(#p833040a6e9)" style="fill: none; stroke: #1f77b4; stroke-opacity: 0.8; stroke-width: 1.5; stroke-linecap: square"/>
   </g>
   <g id="line2d_58"/>
   <g id="patch_3">
    <path d="M 51.378125 170.44 
L 51.378125 7.2 
" style="fill: none; stroke: #000000; stroke-width: 0.8; stroke-linejoin: miter; stroke-linecap: square"/>
   </g>
   <g id="patch_4">
    <path d="M 240.702753 170.44 
L 240.702753 7.2 
" style="fill: none; stroke: #000000; stroke-width: 0.8; stroke-linejoin: miter; stroke-linecap: square"/>
   </g>
   <g id="patch_5">
    <path d="M 51.378125 170.44 
L 240.702753 170.44 
" style="fill: none; stroke: #000000; stroke-width: 0.8; stroke-linejoin: miter; stroke-linecap: square"/>
   </g>
   <g id="patch_6">
    <path d="M 51.378125 7.2 
L 240.702753 7.2 
" style="fill: none; stroke: #000000; stroke-width: 0.8; stroke-linejoin: miter; stroke-linecap: square"/>
   </g>
  </g>
  <g id="axes_2">
   <g id="patch_7">
    <path d="M 297.854375 170.44 
L 487.179003 170.44 
L 487.179003 7.2 
L 297.854375 7.2 
z
" style="fill: #ffffff"/>
   </g>
   <g id="FillBetweenPolyCollection_2"/>
   <g id="matplotlib.axis_3">
    <g id="xtick_5">
     <g id="line2d_59">
      <g>
       <use xlink:href="#m90f38bc858" x="306.46004" y="170.44" style="stroke: #000000; stroke-width: 0.8"/>
      </g>
     </g>
     <g id="text_13">
      <!-- 0 -->
      <g transform="translate(303.27879 185.038438) scale(0.1 -0.1)">
       <use xlink:href="#DejaVuSans-30"/>
      </g>
     </g>
    </g>
    <g id="xtick_6">
     <g id="line2d_60">
      <g>
       <use xlink:href="#m90f38bc858" x="364.023016" y="170.44" style="stroke: #000000; stroke-width: 0.8"/>
      </g>
     </g>
     <g id="text_14">
      <!-- 100 -->
      <g transform="translate(354.479266 185.038438) scale(0.1 -0.1)">
       <use xlink:href="#DejaVuSans-31"/>
       <use xlink:href="#DejaVuSans-30" transform="translate(63.623047 0)"/>
       <use xlink:href="#DejaVuSans-30" transform="translate(127.246094 0)"/>
      </g>
     </g>
    </g>
    <g id="xtick_7">
     <g id="line2d_61">
      <g>
       <use xlink:href="#m90f38bc858" x="421.585992" y="170.44" style="stroke: #000000; stroke-width: 0.8"/>
      </g>
     </g>
     <g id="text_15">
      <!-- 200 -->
      <g transform="translate(412.042242 185.038438) scale(0.1 -0.1)">
       <use xlink:href="#DejaVuSans-32"/>
       <use xlink:href="#DejaVuSans-30" transform="translate(63.623047 0)"/>
       <use xlink:href="#DejaVuSans-30" transform="translate(127.246094 0)"/>
      </g>
     </g>
    </g>
    <g id="xtick_8">
     <g id="line2d_62">
      <g>
       <use xlink:href="#m90f38bc858" x="479.148968" y="170.44" style="stroke: #000000; stroke-width: 0.8"/>
      </g>
     </g>
     <g id="text_16">
      <!-- 300 -->
      <g transform="translate(469.605218 185.038438) scale(0.1 -0.1)">
       <use xlink:href="#DejaVuSans-33"/>
       <use xlink:href="#DejaVuSans-30" transform="translate(63.623047 0)"/>
       <use xlink:href="#DejaVuSans-30" transform="translate(127.246094 0)"/>
      </g>
     </g>
    </g>
    <g id="text_17">
     <!-- Epoch -->
     <g transform="translate(377.205752 198.716563) scale(0.1 -0.1)">
      <use xlink:href="#DejaVuSans-45"/>
      <use xlink:href="#DejaVuSans-70" transform="translate(63.183594 0)"/>
      <use xlink:href="#DejaVuSans-6f" transform="translate(126.660156 0)"/>
      <use xlink:href="#DejaVuSans-63" transform="translate(187.841797 0)"/>
      <use xlink:href="#DejaVuSans-68" transform="translate(242.822266 0)"/>
     </g>
    </g>
   </g>
   <g id="matplotlib.axis_4">
    <g id="ytick_53">
     <g id="line2d_63">
      <g>
       <use xlink:href="#mb25f191682" x="297.854375" y="168.897952" style="stroke: #000000; stroke-width: 0.8"/>
      </g>
     </g>
     <g id="text_18">
      <!-- $\mathdefault{10^{-2}}$ -->
      <g transform="translate(267.354375 172.697171) scale(0.1 -0.1)">
       <use xlink:href="#DejaVuSans-31" transform="translate(0 0.765625)"/>
       <use xlink:href="#DejaVuSans-30" transform="translate(63.623047 0.765625)"/>
       <use xlink:href="#DejaVuSans-2212" transform="translate(128.203125 39.046875) scale(0.7)"/>
       <use xlink:href="#DejaVuSans-32" transform="translate(186.855469 39.046875) scale(0.7)"/>
      </g>
     </g>
    </g>
    <g id="ytick_54">
     <g id="line2d_64">
      <g>
       <use xlink:href="#mb25f191682" x="297.854375" y="85.976788" style="stroke: #000000; stroke-width: 0.8"/>
      </g>
     </g>
     <g id="text_19">
      <!-- $\mathdefault{10^{-1}}$ -->
      <g transform="translate(267.354375 89.776007) scale(0.1 -0.1)">
       <use xlink:href="#DejaVuSans-31" transform="translate(0 0.684375)"/>
       <use xlink:href="#DejaVuSans-30" transform="translate(63.623047 0.684375)"/>
       <use xlink:href="#DejaVuSans-2212" transform="translate(128.203125 38.965625) scale(0.7)"/>
       <use xlink:href="#DejaVuSans-31" transform="translate(186.855469 38.965625) scale(0.7)"/>
      </g>
     </g>
    </g>
    <g id="ytick_55">
     <g id="line2d_65">
      <g>
       <use xlink:href="#ma406cfb5d4" x="297.854375" y="143.936194" style="stroke: #000000; stroke-width: 0.6"/>
      </g>
     </g>
    </g>
    <g id="ytick_56">
     <g id="line2d_66">
      <g>
       <use xlink:href="#ma406cfb5d4" x="297.854375" y="129.334502" style="stroke: #000000; stroke-width: 0.6"/>
      </g>
     </g>
    </g>
    <g id="ytick_57">
     <g id="line2d_67">
      <g>
       <use xlink:href="#ma406cfb5d4" x="297.854375" y="118.974437" style="stroke: #000000; stroke-width: 0.6"/>
      </g>
     </g>
    </g>
    <g id="ytick_58">
     <g id="line2d_68">
      <g>
       <use xlink:href="#ma406cfb5d4" x="297.854375" y="110.938546" style="stroke: #000000; stroke-width: 0.6"/>
      </g>
     </g>
    </g>
    <g id="ytick_59">
     <g id="line2d_69">
      <g>
       <use xlink:href="#ma406cfb5d4" x="297.854375" y="104.372745" style="stroke: #000000; stroke-width: 0.6"/>
      </g>
     </g>
    </g>
    <g id="ytick_60">
     <g id="line2d_70">
      <g>
       <use xlink:href="#ma406cfb5d4" x="297.854375" y="98.821439" style="stroke: #000000; stroke-width: 0.6"/>
      </g>
     </g>
    </g>
    <g id="ytick_61">
     <g id="line2d_71">
      <g>
       <use xlink:href="#ma406cfb5d4" x="297.854375" y="94.012679" style="stroke: #000000; stroke-width: 0.6"/>
      </g>
     </g>
    </g>
    <g id="ytick_62">
     <g id="line2d_72">
      <g>
       <use xlink:href="#ma406cfb5d4" x="297.854375" y="89.771053" style="stroke: #000000; stroke-width: 0.6"/>
      </g>
     </g>
    </g>
    <g id="ytick_63">
     <g id="line2d_73">
      <g>
       <use xlink:href="#ma406cfb5d4" x="297.854375" y="61.015031" style="stroke: #000000; stroke-width: 0.6"/>
      </g>
     </g>
    </g>
    <g id="ytick_64">
     <g id="line2d_74">
      <g>
       <use xlink:href="#ma406cfb5d4" x="297.854375" y="46.413338" style="stroke: #000000; stroke-width: 0.6"/>
      </g>
     </g>
    </g>
    <g id="ytick_65">
     <g id="line2d_75">
      <g>
       <use xlink:href="#ma406cfb5d4" x="297.854375" y="36.053273" style="stroke: #000000; stroke-width: 0.6"/>
      </g>
     </g>
    </g>
    <g id="ytick_66">
     <g id="line2d_76">
      <g>
       <use xlink:href="#ma406cfb5d4" x="297.854375" y="28.017382" style="stroke: #000000; stroke-width: 0.6"/>
      </g>
     </g>
    </g>
    <g id="ytick_67">
     <g id="line2d_77">
      <g>
       <use xlink:href="#ma406cfb5d4" x="297.854375" y="21.451581" style="stroke: #000000; stroke-width: 0.6"/>
      </g>
     </g>
    </g>
    <g id="ytick_68">
     <g id="line2d_78">
      <g>
       <use xlink:href="#ma406cfb5d4" x="297.854375" y="15.900275" style="stroke: #000000; stroke-width: 0.6"/>
      </g>
     </g>
    </g>
    <g id="ytick_69">
     <g id="line2d_79">
      <g>
       <use xlink:href="#ma406cfb5d4" x="297.854375" y="11.091515" style="stroke: #000000; stroke-width: 0.6"/>
      </g>
     </g>
    </g>
    <g id="text_20">
     <!-- Test MSE -->
     <g transform="translate(261.274688 110.902031) rotate(-90) scale(0.1 -0.1)">
      <defs>
       <path id="DejaVuSans-65" d="M 3597 1894 
L 3597 1613 
L 953 1613 
Q 991 1019 1311 708 
Q 1631 397 2203 397 
Q 2534 397 2845 478 
Q 3156 559 3463 722 
L 3463 178 
Q 3153 47 2828 -22 
Q 2503 -91 2169 -91 
Q 1331 -91 842 396 
Q 353 884 353 1716 
Q 353 2575 817 3079 
Q 1281 3584 2069 3584 
Q 2775 3584 3186 3129 
Q 3597 2675 3597 1894 
z
M 3022 2063 
Q 3016 2534 2758 2815 
Q 2500 3097 2075 3097 
Q 1594 3097 1305 2825 
Q 1016 2553 972 2059 
L 3022 2063 
z
" transform="scale(0.015625)"/>
       <path id="DejaVuSans-74" d="M 1172 4494 
L 1172 3500 
L 2356 3500 
L 2356 3053 
L 1172 3053 
L 1172 1153 
Q 1172 725 1289 603 
Q 1406 481 1766 481 
L 2356 481 
L 2356 0 
L 1766 0 
Q 1100 0 847 248 
Q 594 497 594 1153 
L 594 3053 
L 172 3053 
L 172 3500 
L 594 3500 
L 594 4494 
L 1172 4494 
z
" transform="scale(0.015625)"/>
       <path id="DejaVuSans-4d" d="M 628 4666 
L 1569 4666 
L 2759 1491 
L 3956 4666 
L 4897 4666 
L 4897 0 
L 4281 0 
L 4281 4097 
L 3078 897 
L 2444 897 
L 1241 4097 
L 1241 0 
L 628 0 
L 628 4666 
z
" transform="scale(0.015625)"/>
       <path id="DejaVuSans-53" d="M 3425 4513 
L 3425 3897 
Q 3066 4069 2747 4153 
Q 2428 4238 2131 4238 
Q 1616 4238 1336 4038 
Q 1056 3838 1056 3469 
Q 1056 3159 1242 3001 
Q 1428 2844 1947 2747 
L 2328 2669 
Q 3034 2534 3370 2195 
Q 3706 1856 3706 1288 
Q 3706 609 3251 259 
Q 2797 -91 1919 -91 
Q 1588 -91 1214 -16 
Q 841 59 441 206 
L 441 856 
Q 825 641 1194 531 
Q 1563 422 1919 422 
Q 2459 422 2753 634 
Q 3047 847 3047 1241 
Q 3047 1584 2836 1778 
Q 2625 1972 2144 2069 
L 1759 2144 
Q 1053 2284 737 2584 
Q 422 2884 422 3419 
Q 422 4038 858 4394 
Q 1294 4750 2059 4750 
Q 2388 4750 2728 4690 
Q 3069 4631 3425 4513 
z
" transform="scale(0.015625)"/>
      </defs>
      <use xlink:href="#DejaVuSans-54"/>
      <use xlink:href="#DejaVuSans-65" transform="translate(44.083984 0)"/>
      <use xlink:href="#DejaVuSans-73" transform="translate(105.607422 0)"/>
      <use xlink:href="#DejaVuSans-74" transform="translate(157.707031 0)"/>
      <use xlink:href="#DejaVuSans-20" transform="translate(196.916016 0)"/>
      <use xlink:href="#DejaVuSans-4d" transform="translate(228.703125 0)"/>
      <use xlink:href="#DejaVuSans-53" transform="translate(314.982422 0)"/>
      <use xlink:href="#DejaVuSans-45" transform="translate(378.458984 0)"/>
     </g>
    </g>
   </g>
   <g id="line2d_80">
    <path d="M 306.46004 14.62 
L 307.03567 17.40284 
L 307.611299 60.255037 
L 308.186929 61.172901 
L 308.762559 60.621328 
L 309.338189 46.765251 
L 309.913818 59.237249 
L 310.489448 83.474534 
L 311.065078 86.282627 
L 311.640708 96.116084 
L 312.216338 87.630257 
L 312.791967 75.157758 
L 313.367597 68.530751 
L 313.943227 101.422186 
L 314.518857 83.744082 
L 315.094486 90.561335 
L 315.670116 60.501286 
L 316.245746 103.048678 
L 316.821376 115.24944 
L 317.397005 123.721507 
L 317.972635 124.191415 
L 318.548265 85.842932 
L 319.123895 133.035239 
L 319.699524 95.646544 
L 320.275154 124.815316 
L 320.850784 117.07059 
L 321.426414 116.22571 
L 322.002043 114.205085 
L 322.577673 120.922536 
L 323.153303 132.360446 
L 323.728933 133.698654 
L 324.304562 104.916533 
L 324.880192 134.783049 
L 325.455822 127.211833 
L 326.031452 124.705342 
L 326.607082 125.127966 
L 327.182711 134.906265 
L 327.758341 133.537859 
L 328.333971 131.344259 
L 328.909601 120.804243 
L 329.48523 140.74813 
L 330.06086 144.329175 
L 330.63649 141.383288 
L 331.21212 134.434676 
L 331.787749 134.770375 
L 332.363379 137.474722 
L 332.939009 145.714828 
L 333.514639 141.505932 
L 334.090268 143.113423 
L 334.665898 140.213872 
L 335.241528 138.980386 
L 335.817158 135.151631 
L 336.392787 135.193513 
L 336.968417 135.076522 
L 337.544047 134.167161 
L 338.119677 141.250893 
L 339.270936 138.175279 
L 339.846566 127.348798 
L 340.422196 142.719504 
L 340.997826 141.709568 
L 341.573455 134.845913 
L 342.149085 125.005245 
L 342.724715 138.50794 
L 343.300345 128.172672 
L 343.875974 131.771088 
L 344.451604 137.26833 
L 345.027234 133.918789 
L 345.602864 143.948842 
L 346.178493 140.705755 
L 346.754123 133.81253 
L 347.329753 136.473702 
L 347.905383 143.704174 
L 348.481012 139.605918 
L 349.056642 138.189638 
L 349.632272 140.011085 
L 350.783531 146.553307 
L 351.359161 143.956784 
L 351.934791 140.329731 
L 352.510421 144.544482 
L 353.08605 145.655833 
L 353.66168 149.284857 
L 354.23731 142.83493 
L 354.81294 141.973357 
L 355.38857 146.468699 
L 355.964199 146.984379 
L 356.539829 145.765101 
L 357.691089 150.473088 
L 358.266718 152.567841 
L 358.842348 142.44941 
L 359.417978 146.478506 
L 359.993608 152.18191 
L 360.569237 148.753871 
L 361.144867 142.316234 
L 361.720497 145.312245 
L 362.296127 143.770812 
L 362.871756 146.531367 
L 363.447386 145.398021 
L 364.598646 149.658253 
L 365.174275 143.631794 
L 365.749905 147.17918 
L 366.325535 148.387343 
L 366.901165 146.798531 
L 367.476794 143.602175 
L 368.052424 144.448627 
L 369.203684 138.753921 
L 369.779314 136.881026 
L 370.354943 147.689465 
L 370.930573 144.640665 
L 372.081833 133.007524 
L 372.657462 148.725365 
L 373.233092 151.538289 
L 373.808722 149.156235 
L 374.384352 141.246541 
L 374.959981 151.81002 
L 375.535611 144.801916 
L 376.111241 152.130884 
L 376.686871 149.668783 
L 377.2625 152.587913 
L 377.83813 158.495284 
L 378.41376 156.166633 
L 378.98939 150.879988 
L 379.565019 153.696648 
L 380.140649 158.307929 
L 380.716279 145.109733 
L 381.291909 153.090169 
L 381.867538 151.394013 
L 382.443168 150.861597 
L 383.018798 150.736189 
L 383.594428 157.89722 
L 384.170058 152.400152 
L 384.745687 141.875916 
L 385.321317 148.180352 
L 385.896947 150.542887 
L 386.472577 154.814704 
L 387.048206 146.787831 
L 387.623836 153.329375 
L 388.199466 158.556195 
L 388.775096 155.402503 
L 389.350725 150.180349 
L 389.926355 159.25424 
L 390.501985 156.617821 
L 391.077615 159.382726 
L 391.653244 155.698851 
L 392.804504 163.02 
L 393.380134 156.9631 
L 393.955763 153.741939 
L 394.531393 141.753612 
L 395.107023 148.999861 
L 395.682653 150.845401 
L 396.258282 149.45448 
L 396.833912 149.363902 
L 397.409542 151.197625 
L 397.985172 149.577175 
L 398.560802 150.988047 
L 399.136431 151.725667 
L 399.712061 148.964919 
L 400.287691 150.636996 
L 400.863321 148.628859 
L 401.43895 151.299816 
L 402.01458 154.812304 
L 402.59021 143.046506 
L 403.16584 138.871965 
L 403.741469 145.494311 
L 404.317099 149.048015 
L 404.892729 149.762474 
L 405.468359 145.308447 
L 406.043988 146.763262 
L 406.619618 151.223846 
L 407.195248 149.911047 
L 407.770878 152.563221 
L 408.346507 146.26231 
L 408.922137 155.018862 
L 409.497767 157.729037 
L 410.073397 141.124268 
L 410.649027 141.452384 
L 411.224656 151.222121 
L 411.800286 151.939419 
L 412.375916 148.257321 
L 412.951546 148.602754 
L 413.527175 155.868411 
L 414.102805 157.001708 
L 414.678435 147.481095 
L 415.254065 144.049803 
L 415.829694 158.647546 
L 416.405324 158.243148 
L 416.980954 156.058656 
L 417.556584 149.029929 
L 418.132213 152.727862 
L 418.707843 160.540275 
L 419.283473 153.132191 
L 419.859103 157.96234 
L 420.434732 147.258071 
L 421.010362 152.210406 
L 421.585992 158.706964 
L 422.161622 148.970967 
L 422.737251 148.238755 
L 423.312881 155.522599 
L 423.888511 155.647061 
L 425.039771 148.862194 
L 425.6154 161.022837 
L 426.19103 152.292718 
L 426.76666 151.347428 
L 427.34229 148.813016 
L 427.917919 152.898156 
L 428.493549 151.54162 
L 429.069179 153.670138 
L 429.644809 157.972538 
L 430.220438 157.259711 
L 430.796068 143.483476 
L 431.371698 154.726304 
L 431.947328 154.502324 
L 432.522957 152.399978 
L 433.098587 152.335215 
L 433.674217 158.062071 
L 434.249847 157.519361 
L 434.825476 145.359858 
L 435.401106 147.421945 
L 435.976736 144.616551 
L 437.127995 144.663409 
L 437.703625 150.463309 
L 438.279255 148.107143 
L 439.430515 140.937582 
L 440.006144 152.035247 
L 440.581774 148.439979 
L 441.157404 148.280342 
L 442.308663 150.53574 
L 442.884293 150.686834 
L 443.459923 145.196098 
L 444.035553 144.570565 
L 444.611182 157.544062 
L 445.186812 155.6529 
L 445.762442 149.574684 
L 446.338072 149.070677 
L 446.913701 152.932004 
L 447.489331 155.093911 
L 448.064961 150.282834 
L 449.21622 148.915917 
L 449.79185 149.155076 
L 450.36748 152.274513 
L 450.94311 146.621802 
L 451.518739 151.067834 
L 452.094369 150.32364 
L 453.245629 142.725004 
L 453.821259 149.058542 
L 454.396888 150.000422 
L 454.972518 143.005034 
L 455.548148 147.826637 
L 456.123778 149.119283 
L 456.699407 148.000926 
L 457.275037 150.491957 
L 457.850667 145.246819 
L 458.426297 150.145722 
L 459.001926 143.085403 
L 459.577556 140.130808 
L 460.153186 142.838853 
L 460.728816 146.155567 
L 461.304445 153.639636 
L 461.880075 146.226193 
L 462.455705 144.994893 
L 463.031335 145.781908 
L 464.182594 151.025511 
L 464.758224 151.78251 
L 465.333854 152.963218 
L 465.909483 142.888597 
L 466.485113 147.105179 
L 467.060743 152.23311 
L 467.636373 144.310324 
L 468.212003 151.555699 
L 468.787632 151.4125 
L 469.363262 147.08701 
L 469.938892 139.950996 
L 470.514522 148.053585 
L 471.090151 147.682792 
L 471.665781 149.747998 
L 472.241411 144.57979 
L 472.817041 151.296734 
L 473.39267 149.546885 
L 474.54393 143.433536 
L 475.11956 145.158265 
L 475.695189 145.950434 
L 476.270819 144.289309 
L 476.846449 143.855554 
L 477.422079 145.869073 
L 478.573338 141.593257 
L 478.573338 141.593257 
" clip-path="url(#p775b275190)" style="fill: none; stroke: #1f77b4; stroke-opacity: 0.8; stroke-width: 1.5; stroke-linecap: square"/>
   </g>
   <g id="patch_8">
    <path d="M 297.854375 170.44 
L 297.854375 7.2 
" style="fill: none; stroke: #000000; stroke-width: 0.8; stroke-linejoin: miter; stroke-linecap: square"/>
   </g>
   <g id="patch_9">
    <path d="M 487.179003 170.44 
L 487.179003 7.2 
" style="fill: none; stroke: #000000; stroke-width: 0.8; stroke-linejoin: miter; stroke-linecap: square"/>
   </g>
   <g id="patch_10">
    <path d="M 297.854375 170.44 
L 487.179003 170.44 
" style="fill: none; stroke: #000000; stroke-width: 0.8; stroke-linejoin: miter; stroke-linecap: square"/>
   </g>
   <g id="patch_11">
    <path d="M 297.854375 7.2 
L 487.179003 7.2 
" style="fill: none; stroke: #000000; stroke-width: 0.8; stroke-linejoin: miter; stroke-linecap: square"/>
   </g>
  </g>
  <g id="legend_1">
   <g id="line2d_81">
    <path d="M 205.423415 225.498438 
L 215.423415 225.498438 
L 225.423415 225.498438 
" style="fill: none; stroke: #1f77b4; stroke-opacity: 0.8; stroke-width: 1.5; stroke-linecap: square"/>
   </g>
   <g id="text_21">
    <!-- VarIBO MLP -->
    <g transform="translate(233.423415 228.998438) scale(0.1 -0.1)">
     <defs>
      <path id="DejaVuSans-56" d="M 1831 0 
L 50 4666 
L 709 4666 
L 2188 738 
L 3669 4666 
L 4325 4666 
L 2547 0 
L 1831 0 
z
" transform="scale(0.015625)"/>
      <path id="DejaVuSans-49" d="M 628 4666 
L 1259 4666 
L 1259 0 
L 628 0 
L 628 4666 
z
" transform="scale(0.015625)"/>
      <path id="DejaVuSans-42" d="M 1259 2228 
L 1259 519 
L 2272 519 
Q 2781 519 3026 730 
Q 3272 941 3272 1375 
Q 3272 1813 3026 2020 
Q 2781 2228 2272 2228 
L 1259 2228 
z
M 1259 4147 
L 1259 2741 
L 2194 2741 
Q 2656 2741 2882 2914 
Q 3109 3088 3109 3444 
Q 3109 3797 2882 3972 
Q 2656 4147 2194 4147 
L 1259 4147 
z
M 628 4666 
L 2241 4666 
Q 2963 4666 3353 4366 
Q 3744 4066 3744 3513 
Q 3744 3084 3544 2831 
Q 3344 2578 2956 2516 
Q 3422 2416 3680 2098 
Q 3938 1781 3938 1306 
Q 3938 681 3513 340 
Q 3088 0 2303 0 
L 628 0 
L 628 4666 
z
" transform="scale(0.015625)"/>
      <path id="DejaVuSans-4f" d="M 2522 4238 
Q 1834 4238 1429 3725 
Q 1025 3213 1025 2328 
Q 1025 1447 1429 934 
Q 1834 422 2522 422 
Q 3209 422 3611 934 
Q 4013 1447 4013 2328 
Q 4013 3213 3611 3725 
Q 3209 4238 2522 4238 
z
M 2522 4750 
Q 3503 4750 4090 4092 
Q 4678 3434 4678 2328 
Q 4678 1225 4090 567 
Q 3503 -91 2522 -91 
Q 1538 -91 948 565 
Q 359 1222 359 2328 
Q 359 3434 948 4092 
Q 1538 4750 2522 4750 
z
" transform="scale(0.015625)"/>
      <path id="DejaVuSans-50" d="M 1259 4147 
L 1259 2394 
L 2053 2394 
Q 2494 2394 2734 2622 
Q 2975 2850 2975 3272 
Q 2975 3691 2734 3919 
Q 2494 4147 2053 4147 
L 1259 4147 
z
M 628 4666 
L 2053 4666 
Q 2838 4666 3239 4311 
Q 3641 3956 3641 3272 
Q 3641 2581 3239 2228 
Q 2838 1875 2053 1875 
L 1259 1875 
L 1259 0 
L 628 0 
L 628 4666 
z
" transform="scale(0.015625)"/>
     </defs>
     <use xlink:href="#DejaVuSans-56"/>
     <use xlink:href="#DejaVuSans-61" transform="translate(60.658203 0)"/>
     <use xlink:href="#DejaVuSans-72" transform="translate(121.9375 0)"/>
     <use xlink:href="#DejaVuSans-49" transform="translate(163.050781 0)"/>
     <use xlink:href="#DejaVuSans-42" transform="translate(192.542969 0)"/>
     <use xlink:href="#DejaVuSans-4f" transform="translate(259.396484 0)"/>
     <use xlink:href="#DejaVuSans-20" transform="translate(338.107422 0)"/>
     <use xlink:href="#DejaVuSans-4d" transform="translate(369.894531 0)"/>
     <use xlink:href="#DejaVuSans-4c" transform="translate(456.173828 0)"/>
     <use xlink:href="#DejaVuSans-50" transform="translate(511.886719 0)"/>
    </g>
   </g>
  </g>
 </g>
 <defs>
  <clipPath id="p833040a6e9">
   <rect x="51.378125" y="7.2" width="189.324628" height="163.24"/>
  </clipPath>
  <clipPath id="p775b275190">
   <rect x="297.854375" y="7.2" width="189.324628" height="163.24"/>
  </clipPath>
 </defs>
</svg>
